<?xml version="1.0" encoding="UTF-8"?>
<svg xmlns="http://www.w3.org/2000/svg" width="485.175mm" height="132.688mm" version="1.1" viewBox="0 0 251054.23 68659.34">
 <g id="Слой_x0020_1" fill-rule="evenodd">
  <g id="_2133847674640">
   <!-- Розовый (#FF0083) с черными контурами -->
   <path fill="#FF0083" stroke="#000000" stroke-width="1000" d="M37234.51 44906.9zm0 0zm-37234.51 -9804.86l0 -4336.7c147.11,-846.34 375.98,-2439.83 699.7,-3228.43 2679.05,-6526.97 5988.25,-12346.11 11692.68,-16233.2 2466.43,-1680.68 6276.21,-3900.8 9461.64,-4592.53 1939.04,-421.05 3780.96,-859.9 5742.56,-1193.29 4041.6,-686.92 2613.49,599.62 4061.78,-2874.13 1811.91,-4345.91 8339.18,-2556.1 8936.17,-156.53 842.88,3388.27 628.91,2116.63 4139.5,2832.63 119.63,24.42 4853.53,1513.34 5229.72,1669.81 5966.67,2481.69 11927.7,7518.04 12605.93,15319.95 708.49,8149.74 -1810.87,15774.79 -6172.57,21682.42 -1819.05,2463.79 -4721.06,4528.68 -7497.34,6374.37 -3810.82,2533.49 -8003.72,2491.42 -10022.5,3849.11 -2.74,3858.89 6594.18,14555.53 -2927.32,14442.88 -6832.52,-80.88 -8760.75,-7504.48 -8754.13,-13165.19 -7788.1,-747.66 -15745.71,-1535.9 -20846.17,-7079.71 -2778.87,-3020.41 -5582.72,-8181.21 -6349.64,-13311.47zm37234.51 9804.86c0,-5196.19 -1437.68,-26748.42 1079.92,-29948.85 2853.84,-1105.64 8974.56,1437.63 10960.23,3489.53 3058.6,3160.74 3448.39,7293.31 2639.26,11387.59 -1672.45,8462.8 -7906.34,11936.97 -14679.4,15071.73zm-10768.77 1095.13c-5314.63,1280.38 -12661.45,-4251.48 -14510.3,-9582.62 -2516.26,-7255.49 228.09,-12333.64 5683.94,-16948.37 3611.08,-3054.36 2630.93,-3245.86 7761.71,-4471.39 4929.91,-1177.56 2627.51,4078.75 2209.26,7871.56 -805.77,7306.71 -1144.6,15785.87 -1144.6,23130.82z"/>

   <!-- Черные контуры для розовой буквы -->
   <path fill="none" stroke="#000000" stroke-width="1500" d="M37234.51 44906.9zm0 0zm-37234.51 -9804.86l0 -4336.7c147.11,-846.34 375.98,-2439.83 699.7,-3228.43 2679.05,-6526.97 5988.25,-12346.11 11692.68,-16233.2 2466.43,-1680.68 6276.21,-3900.8 9461.64,-4592.53 1939.04,-421.05 3780.96,-859.9 5742.56,-1193.29 4041.6,-686.92 2613.49,599.62 4061.78,-2874.13 1811.91,-4345.91 8339.18,-2556.1 8936.17,-156.53 842.88,3388.27 628.91,2116.63 4139.5,2832.63 119.63,24.42 4853.53,1513.34 5229.72,1669.81 5966.67,2481.69 11927.7,7518.04 12605.93,15319.95 708.49,8149.74 -1810.87,15774.79 -6172.57,21682.42 -1819.05,2463.79 -4721.06,4528.68 -7497.34,6374.37 -3810.82,2533.49 -8003.72,2491.42 -10022.5,3849.11 -2.74,3858.89 6594.18,14555.53 -2927.32,14442.88 -6832.52,-80.88 -8760.75,-7504.48 -8754.13,-13165.19 -7788.1,-747.66 -15745.71,-1535.9 -20846.17,-7079.71 -2778.87,-3020.41 -5582.72,-8181.21 -6349.64,-13311.47zm37234.51 9804.86c0,-5196.19 -1437.68,-26748.42 1079.92,-29948.85 2853.84,-1105.64 8974.56,1437.63 10960.23,3489.53 3058.6,3160.74 3448.39,7293.31 2639.26,11387.59 -1672.45,8462.8 -7906.34,11936.97 -14679.4,15071.73zm-10768.77 1095.13c-5314.63,1280.38 -12661.45,-4251.48 -14510.3,-9582.62 -2516.26,-7255.49 228.09,-12333.64 5683.94,-16948.37 3611.08,-3054.36 2630.93,-3245.86 7761.71,-4471.39 4929.91,-1177.56 2627.51,4078.75 2209.26,7871.56 -805.77,7306.71 -1144.6,15785.87 -1144.6,23130.82z"/>

   <!-- Голубой (#00F0FF) -->
   <path fill="#00F0FF" d="M89643.1 42086.13c-2953.76,11482.7 -23228.62,8532.24 -16528.62,-6382.24 6597.75,-14686.91 16206.97,-5412.95 16611.41,-3315.93 281.44,1242.04 192.75,8627.04 -82.79,9698.16zm2895.65 14502.23c1588.26,5868.1 13437.94,6743.73 14336.9,270.47 399.16,-2874.13 -1913.17,-5635.45 -2100.69,-9768.85 -179.24,-3949.91 0.1,-7738.99 -7.76,-11674.72 -12.16,-6098.98 1457.35,-16986.2 -7453.93,-15206.17 -5033.76,1005.51 -300.74,2800.65 -7708.77,-841.37 -3158.26,-1552.66 -7368.45,-1432.1 -10891.56,-1048.15 -11545.77,1258.23 -19850.24,19303.86 -16380.57,29962.98 741.4,2389.69 688.36,3204.11 4410.9,7453.05 2792.99,2384.88 3693.46,3565.24 7343.19,4703.26 3421.44,1066.93 6975.6,1203.38 10482.57,226.18 1592.4,-443.71 1751.73,-486.97 3968.07,-1844.5 2466.27,-1189.57 2775.14,-1903.13 4001.65,-2232.18z"/>

   <!-- Оранжевый (#FFAC00) -->
   <path fill="#FFAC00" d="M202234.62 43994.33c0,2741.09 362.78,5015.24 456.08,7023.36 -75.55,2766.55 23.34,3701.01 583.74,6721.06 1376,2493.59 2099.3,2593 5397.06,2585.55 2776.59,-501.62 8031.4,2602.05 5490.51,-7997.46 -353.47,-2661.66 -202.17,-4618.71 -425.71,-6693.74 -48.43,-159.06 -985.69,-12712.37 -1106,-14224.77 -265.04,-3333 -278.34,-10066.12 -3378.07,-12136.29 -4404.18,-2941.34 -8454.06,670.1 -8474.81,5560.47 -10.76,2549.22 -4073.68,7675.24 -5449.22,10065.14 -991.02,1721.77 -4817.36,9076.34 -5870.17,9826.75 0,-5107.03 261.31,-10000.41 361.65,-15152.71 70.99,-3644.04 1820.75,-10338.87 -2604.74,-12353.67 -9738.73,-4433.78 -8353.21,17188.06 -8733.22,21277.36 -204.96,4800.34 -137.75,25657.89 8910.5,22796.44 6171.58,-1951.67 11086.38,-13040.38 14842.4,-17297.5z"/>

   <!-- Розово-фиолетовый (#FF00D1) -->
   <path fill="#FF00D1" d="M134540.33 44297.45c3.98,8.85 -389.07,10035.59 224.21,11639.74 1011.51,2645.73 5731.39,5064.34 8066.18,4571.16 3504.69,-740.37 3801.4,-5715.04 3315.25,-8832.62 -1006.49,-6454.21 -419.7,-31186.29 -4630.36,-33521.64 -2818.97,-1563.53 -6943.77,1589.76 -7661.79,4152.96 -641.85,2291.12 472.79,10369.19 -8.8,11665.05 -823.21,721.53 -13491.18,970.74 -13777.23,155.24 -1508.21,-4299.6 999.25,-10043.87 -2518.12,-14089.2 -3813.15,-4385.39 -8139.65,-1856.2 -8698.6,3176.22 -422.19,3800.99 697.89,11373.77 843.34,15630.37 178.47,5223.04 178.47,11265.06 175.52,16433.97 -2.69,4772.19 6265.5,8161.85 9110.29,4530.38 1544.33,-1971.33 1369.28,-11079.86 1625.78,-14253.7 239.11,-2958.94 11648.02,-1896.15 13934.33,-1257.92z"/>

   <!-- Фиолетовый (#B800FF) -->
   <path fill="#B800FF" d="M219765.65 60640.66c911.7,1340.3 7196.76,884.69 8802.41,-3089.49 2099.5,-5201.26 684.17,-5573.36 679.88,-10454 7250.93,3586.09 9431.99,13150.54 17868.24,13150.54 1528.45,-446.51 2719.41,-1180.56 3324.36,-2266.43l613.7 -3193.6c-75.91,-1757.21 -1790.74,-5434.01 -4348.97,-6808.87 -1515.15,-814.26 -9610.15,-7524.97 -10338.97,-8547.56 119.95,-443.14 7576.31,-8379.18 8622.59,-9264.54 2682.62,-2269.8 6810.17,-6504.61 3244.62,-11173.78 -2454.32,-3213.99 -9005.45,2209.88 -10817.62,3965.79 -736.8,713.93 -9344.23,8521.69 -9434.01,8507.35 -2330.8,-371.01 2353.37,-13084.72 -2817.88,-13880.77 -7373.93,-1135.13 -8464.15,3426.77 -7729.57,9566.52 1160.59,9701.06 -936.64,25249.68 2331.22,33488.84z"/>

   <!-- Салатовый (#B4FF00) -->
   <path fill="#B4FF00" d="M169614.59 18935.64c-1832.71,318.23 -16792.93,927.06 -17676.58,708.34 -6995.67,-1731.96 -9287.2,8299.7 -4982.53,10271.96 5654.75,2590.77 10981.86,-5340.19 9361.72,9961.6 -306.33,2893.43 897.1,15534.02 2138.05,17962.52 2425.91,4747.51 11020.77,4953.92 11125.91,-1979.97 68.51,-4516.46 -1874.67,-12493.95 -2205.32,-18078.74 -911.9,-15402.18 -1002.72,-5724.3 8179.65,-10244.9 4208.01,-2071.61 5582,-10601.68 -5940.9,-8600.81z"/>
  </g>
 </g>
</svg>