<?xml version="1.0" encoding="UTF-8"?>
<!DOCTYPE svg PUBLIC "-//W3C//DTD SVG 1.1//EN" "http://www.w3.org/Graphics/SVG/1.1/DTD/svg11.dtd">
<!-- Creator: CorelDRAW -->
<svg xmlns="http://www.w3.org/2000/svg" xml:space="preserve" width="121.148mm" height="132.688mm" version="1.1" style="shape-rendering:geometricPrecision; text-rendering:geometricPrecision; image-rendering:optimizeQuality; fill-rule:evenodd; clip-rule:evenodd"
viewBox="0 0 19401.04 21249.01"
 xmlns:xlink="http://www.w3.org/1999/xlink"
 xmlns:xodm="http://www.corel.com/coreldraw/odm/2003">
 <defs>
  <style type="text/css">
   <![CDATA[
    .fil0 {fill:#FF0083}
   ]]>
  </style>
 </defs>
 <g id="Слой_x0020_1">
  <metadata id="CorelCorpID_0Corel-Layer"/>
  <path class="fil0" d="M11523.51 13898zm0 0zm-11523.51 -3034.45l0 -1342.14c45.53,-261.93 116.36,-755.09 216.55,-999.15 829.12,-2020 1853.27,-3820.93 3618.7,-5023.93 763.32,-520.14 1942.39,-1207.24 2928.23,-1421.32 600.1,-130.31 1170.15,-266.13 1777.24,-369.31 1250.81,-212.59 808.83,185.57 1257.06,-889.5 560.76,-1344.99 2580.85,-791.07 2765.61,-48.44 260.86,1048.62 194.64,655.07 1281.11,876.65 37.03,7.56 1502.09,468.35 1618.52,516.78 1846.59,768.05 3691.44,2326.72 3901.34,4741.29 219.27,2522.22 -560.44,4882.06 -1910.31,6710.38 -562.97,762.51 -1461.1,1401.56 -2320.31,1972.77 -1179.39,784.08 -2477.03,771.06 -3101.81,1191.24 -0.85,1194.27 2040.8,4504.71 -905.96,4469.85 -2114.56,-25.03 -2711.32,-2322.52 -2709.27,-4074.42 -2410.3,-231.39 -4873.06,-475.34 -6451.57,-2191.06 -860.02,-934.77 -1727.77,-2531.96 -1965.12,-4119.7zm11523.51 3034.45c0,-1608.14 -444.94,-8278.23 334.22,-9268.71 883.22,-342.18 2777.49,444.93 3392.02,1079.96 946.59,978.2 1067.23,2257.17 816.81,3524.28 -517.6,2619.11 -2446.89,3694.31 -4543.05,4664.47zm-3332.77 338.93c-1644.8,396.26 -3918.52,-1315.77 -4490.71,-2965.67 -778.74,-2245.46 70.59,-3817.07 1759.09,-5245.26 1117.57,-945.28 814.23,-1004.55 2402.13,-1383.83 1525.73,-364.44 813.17,1262.31 683.73,2436.13 -249.37,2261.32 -354.24,4885.48 -354.24,7158.63z"/>
 </g>
</svg>
